<?xml version="1.0" encoding="UTF-8"?>
<svg version="1.1" xmlns="http://www.w3.org/2000/svg" width="626" height="626">
<path d="M0 0 C206.58 0 413.16 0 626 0 C626 206.58 626 413.16 626 626 C419.42 626 212.84 626 0 626 C0 419.42 0 212.84 0 0 Z " fill="#F6F5F6" transform="translate(0,0)"/>
<path d="M0 0 C0.95447021 0.26506348 1.90894043 0.53012695 2.89233398 0.80322266 C22.53410677 6.47372856 41.19729914 17.54278839 56.25 31.375 C56.25 32.035 56.25 32.695 56.25 33.375 C56.91 33.375 57.57 33.375 58.25 33.375 C58.25 34.035 58.25 34.695 58.25 35.375 C58.91 35.375 59.57 35.375 60.25 35.375 C81.63149427 55.51269544 96.24757447 87.60296287 97.38623047 116.87744141 C97.86768223 140.13963554 97.86768223 140.13963554 96.25 143.375 C92.29 143.375 88.33 143.375 84.25 143.375 C83.92386719 142.57835937 83.59773437 141.78171875 83.26171875 140.9609375 C80.54348041 134.26736181 80.54348041 134.26736181 77.4375 127.75 C76.25 125.375 76.25 125.375 76.25 123.375 C75.59 123.375 74.93 123.375 74.25 123.375 C72.8046875 121.8359375 72.8046875 121.8359375 71.125 119.75 C64.08127468 111.53232046 54.93539448 105.69682637 44.25 103.375 C44.25 102.715 44.25 102.055 44.25 101.375 C43.59 101.375 42.93 101.375 42.25 101.375 C42.25 100.055 42.25 98.735 42.25 97.375 C41.59 97.375 40.93 97.375 40.25 97.375 C40.25 96.055 40.25 94.735 40.25 93.375 C39.59 93.375 38.93 93.375 38.25 93.375 C38.25 92.055 38.25 90.735 38.25 89.375 C37.59 89.375 36.93 89.375 36.25 89.375 C36.25 88.055 36.25 86.735 36.25 85.375 C35.59 85.375 34.93 85.375 34.25 85.375 C34.25 84.055 34.25 82.735 34.25 81.375 C33.59 81.375 32.93 81.375 32.25 81.375 C32.25 80.715 32.25 80.055 32.25 79.375 C31.59 79.375 30.93 79.375 30.25 79.375 C30.25 78.715 30.25 78.055 30.25 77.375 C29.59 77.375 28.93 77.375 28.25 77.375 C28.25 76.715 28.25 76.055 28.25 75.375 C27.59 75.375 26.93 75.375 26.25 75.375 C26.25 74.055 26.25 72.735 26.25 71.375 C25.59 71.375 24.93 71.375 24.25 71.375 C24.25 70.715 24.25 70.055 24.25 69.375 C23.59 69.375 22.93 69.375 22.25 69.375 C22.25 68.715 22.25 68.055 22.25 67.375 C20.93 67.375 19.61 67.375 18.25 67.375 C18.25 66.715 18.25 66.055 18.25 65.375 C17.59 65.375 16.93 65.375 16.25 65.375 C16.25 64.715 16.25 64.055 16.25 63.375 C15.59 63.375 14.93 63.375 14.25 63.375 C14.25 62.715 14.25 62.055 14.25 61.375 C13.59 61.375 12.93 61.375 12.25 61.375 C12.25 60.715 12.25 60.055 12.25 59.375 C10.93 59.375 9.61 59.375 8.25 59.375 C8.25 58.715 8.25 58.055 8.25 57.375 C6.93 57.375 5.61 57.375 4.25 57.375 C4.25 56.715 4.25 56.055 4.25 55.375 C2.93 55.375 1.61 55.375 0.25 55.375 C0.25 54.715 0.25 54.055 0.25 53.375 C-1.07 53.375 -2.39 53.375 -3.75 53.375 C-3.75 52.715 -3.75 52.055 -3.75 51.375 C-5.07 51.375 -6.39 51.375 -7.75 51.375 C-7.75 50.715 -7.75 50.055 -7.75 49.375 C-10.39 49.375 -13.03 49.375 -15.75 49.375 C-15.75 48.715 -15.75 48.055 -15.75 47.375 C-19.71 47.375 -23.67 47.375 -27.75 47.375 C-27.75 47.045 -27.75 46.715 -27.75 46.375 C-34.68 45.88 -34.68 45.88 -41.75 45.375 C-41.75 46.035 -41.75 46.695 -41.75 47.375 C-45.71 47.375 -49.67 47.375 -53.75 47.375 C-53.75 48.035 -53.75 48.695 -53.75 49.375 C-55.73 49.375 -57.71 49.375 -59.75 49.375 C-59.75 50.035 -59.75 50.695 -59.75 51.375 C-61.73 51.375 -63.71 51.375 -65.75 51.375 C-65.75 52.035 -65.75 52.695 -65.75 53.375 C-67.07 53.375 -68.39 53.375 -69.75 53.375 C-69.75 54.035 -69.75 54.695 -69.75 55.375 C-71.07 55.375 -72.39 55.375 -73.75 55.375 C-73.75 56.035 -73.75 56.695 -73.75 57.375 C-75.07 57.375 -76.39 57.375 -77.75 57.375 C-77.75 58.035 -77.75 58.695 -77.75 59.375 C-79.07 59.375 -80.39 59.375 -81.75 59.375 C-81.75 60.035 -81.75 60.695 -81.75 61.375 C-82.41 61.375 -83.07 61.375 -83.75 61.375 C-83.75 62.035 -83.75 62.695 -83.75 63.375 C-84.41 63.375 -85.07 63.375 -85.75 63.375 C-85.75 64.035 -85.75 64.695 -85.75 65.375 C-86.41 65.375 -87.07 65.375 -87.75 65.375 C-87.75 66.035 -87.75 66.695 -87.75 67.375 C-89.07 67.375 -90.39 67.375 -91.75 67.375 C-91.75 68.035 -91.75 68.695 -91.75 69.375 C-92.41 69.375 -93.07 69.375 -93.75 69.375 C-93.75 70.035 -93.75 70.695 -93.75 71.375 C-94.41 71.375 -95.07 71.375 -95.75 71.375 C-95.75 72.695 -95.75 74.015 -95.75 75.375 C-96.41 75.375 -97.07 75.375 -97.75 75.375 C-97.75 76.035 -97.75 76.695 -97.75 77.375 C-98.41 77.375 -99.07 77.375 -99.75 77.375 C-99.75 78.035 -99.75 78.695 -99.75 79.375 C-100.41 79.375 -101.07 79.375 -101.75 79.375 C-101.75 80.035 -101.75 80.695 -101.75 81.375 C-102.41 81.375 -103.07 81.375 -103.75 81.375 C-103.75 82.695 -103.75 84.015 -103.75 85.375 C-104.41 85.375 -105.07 85.375 -105.75 85.375 C-105.75 86.695 -105.75 88.015 -105.75 89.375 C-106.41 89.375 -107.07 89.375 -107.75 89.375 C-107.75 90.695 -107.75 92.015 -107.75 93.375 C-108.41 93.375 -109.07 93.375 -109.75 93.375 C-109.75 94.695 -109.75 96.015 -109.75 97.375 C-110.41 97.375 -111.07 97.375 -111.75 97.375 C-111.75 99.355 -111.75 101.335 -111.75 103.375 C-112.41 103.375 -113.07 103.375 -113.75 103.375 C-113.75 105.355 -113.75 107.335 -113.75 109.375 C-114.41 109.375 -115.07 109.375 -115.75 109.375 C-115.64558594 111.25445312 -115.64558594 111.25445312 -115.5390625 113.171875 C-115.48277882 114.82286302 -115.42817931 116.47390907 -115.375 118.125 C-115.32472656 118.95 -115.27445313 119.775 -115.22265625 120.625 C-115.16486453 123.01372455 -115.18853587 125.05038097 -115.75 127.375 C-120.2469697 131.375 -120.2469697 131.375 -123.75 131.375 C-123.75 132.035 -123.75 132.695 -123.75 133.375 C-125.296875 134.550625 -125.296875 134.550625 -126.875 135.75 C-134.45717088 142.05565935 -137.53057491 151.87189413 -138.75 161.375 C-139.69746094 160.85099609 -139.69746094 160.85099609 -140.6640625 160.31640625 C-148.3563813 156.40374266 -155.17384342 155.5127193 -163.75 155.375 C-164.06319144 153.97932165 -164.37551788 152.58344918 -164.6875 151.1875 C-164.86152344 150.41019531 -165.03554687 149.63289062 -165.21484375 148.83203125 C-165.39144531 148.02121094 -165.56804687 147.21039063 -165.75 146.375 C-165.92257324 145.62178467 -166.09514648 144.86856934 -166.27294922 144.0925293 C-167.18380955 138.90379524 -166.93464751 133.62928244 -166.9375 128.375 C-166.94974609 127.21871094 -166.96199219 126.06242188 -166.97460938 124.87109375 C-166.99331789 113.70834359 -165.52823092 103.03662323 -162.4375 92.3125 C-162.2194873 91.54719971 -162.00147461 90.78189941 -161.77685547 89.9934082 C-156.16231195 70.80264819 -146.34011568 54.25399144 -132.796875 39.61328125 C-131.05443697 37.70790531 -129.41980095 35.7685809 -127.8125 33.75 C-127.131875 32.96625 -126.45125 32.1825 -125.75 31.375 C-125.09 31.375 -124.43 31.375 -123.75 31.375 C-123.75 30.715 -123.75 30.055 -123.75 29.375 C-121.97618048 27.77085018 -120.21197042 26.31887381 -118.3125 24.875 C-117.73991455 24.43720215 -117.1673291 23.9994043 -116.57739258 23.54833984 C-109.37810329 18.17928094 -101.62714167 13.6702263 -93.75 9.375 C-93.11666748 9.02872559 -92.48333496 8.68245117 -91.83081055 8.32568359 C-64.91288435 -5.78794795 -29.07764684 -8.12014997 0 0 Z " fill="#30AAE2" transform="translate(347.75,194.625)"/>
<path d="M0 0 C5.28 0 10.56 0 16 0 C16 0.33 16 0.66 16 1 C20.95 1.495 20.95 1.495 26 2 C26 2.66 26 3.32 26 4 C28.64 4 31.28 4 34 4 C34 4.66 34 5.32 34 6 C35.32 6 36.64 6 38 6 C38 6.66 38 7.32 38 8 C39.32 8 40.64 8 42 8 C42 8.66 42 9.32 42 10 C43.32 10 44.64 10 46 10 C46 10.66 46 11.32 46 12 C47.32 12 48.64 12 50 12 C50 12.66 50 13.32 50 14 C51.32 14 52.64 14 54 14 C54 14.66 54 15.32 54 16 C54.66 16 55.32 16 56 16 C56 16.66 56 17.32 56 18 C56.66 18 57.32 18 58 18 C58 18.66 58 19.32 58 20 C58.66 20 59.32 20 60 20 C60 20.66 60 21.32 60 22 C61.32 22 62.64 22 64 22 C64 22.66 64 23.32 64 24 C64.66 24 65.32 24 66 24 C66 24.66 66 25.32 66 26 C66.66 26 67.32 26 68 26 C68 27.32 68 28.64 68 30 C68.66 30 69.32 30 70 30 C70 30.66 70 31.32 70 32 C70.66 32 71.32 32 72 32 C72 32.66 72 33.32 72 34 C72.66 34 73.32 34 74 34 C74 34.66 74 35.32 74 36 C74.66 36 75.32 36 76 36 C76 37.32 76 38.64 76 40 C76.66 40 77.32 40 78 40 C78 41.32 78 42.64 78 44 C78.66 44 79.32 44 80 44 C80 45.32 80 46.64 80 48 C80.66 48 81.32 48 82 48 C82 49.32 82 50.64 82 52 C82.66 52 83.32 52 84 52 C84 53.32 84 54.64 84 56 C82.74703125 56.06058594 81.4940625 56.12117188 80.203125 56.18359375 C78.55207276 56.26802256 76.90103165 56.35266939 75.25 56.4375 C74.425 56.47681641 73.6 56.51613281 72.75 56.55664062 C71.95078125 56.59853516 71.1515625 56.64042969 70.328125 56.68359375 C69.5949707 56.72025146 68.86181641 56.75690918 68.10644531 56.79467773 C65.98646945 57.00131887 64.05748006 57.46298476 62 58 C60.58465222 58.06456879 59.16662311 58.08611039 57.75 58.0625 C55.89375 58.0315625 55.89375 58.0315625 54 58 C54 58.66 54 59.32 54 60 C52.71086513 60.67154933 51.41859796 61.33708859 50.125 62 C49.40570313 62.37125 48.68640625 62.7425 47.9453125 63.125 C46 64 46 64 44 64 C44 64.66 44 65.32 44 66 C43.34 66 42.68 66 42 66 C42 66.66 42 67.32 42 68 C40.34928604 69.02611949 38.68029994 70.02308143 37 71 C36.443125 71.556875 35.88625 72.11375 35.3125 72.6875 C34.879375 73.120625 34.44625 73.55375 34 74 C33.34 74 32.68 74 32 74 C32 74.66 32 75.32 32 76 C31.34 76 30.68 76 30 76 C30 77.32 30 78.64 30 80 C29.34 80 28.68 80 28 80 C28 81.32 28 82.64 28 84 C27.34 84 26.68 84 26 84 C24.34091863 88.73809725 23.06401333 93.50444908 21.875 98.375 C21.69324219 99.11105469 21.51148438 99.84710938 21.32421875 100.60546875 C20.88064438 102.40311223 20.44001734 104.20148254 20 106 C19.34 106 18.68 106 18 106 C18 105.34 18 104.68 18 104 C16.68 104 15.36 104 14 104 C14 103.34 14 102.68 14 102 C12.7625 101.814375 12.7625 101.814375 11.5 101.625 C8 101 8 101 4.625 99.9375 C0.40559394 98.84176277 -3.79173116 98.81299298 -8.125 98.8125 C-8.8061084 98.8117749 -9.4872168 98.8110498 -10.18896484 98.81030273 C-14.22021317 98.85396069 -18.0444435 99.22983713 -22 100 C-22.66 98.02 -23.32 96.04 -24 94 C-24.66 94 -25.32 94 -26 94 C-27.35386936 92.34997172 -28.68678142 90.6825613 -30 89 C-30.99 88.505 -30.99 88.505 -32 88 C-32 87.34 -32 86.68 -32 86 C-32.66 86 -33.32 86 -34 86 C-34 85.34 -34 84.68 -34 84 C-36.64 83.34 -39.28 82.68 -42 82 C-42 81.34 -42 80.68 -42 80 C-42.94875 80.020625 -43.8975 80.04125 -44.875 80.0625 C-48 80 -48 80 -50 79 C-52.59441251 78.90110984 -55.1560948 78.86105427 -57.75 78.875 C-58.80574219 78.86919922 -58.80574219 78.86919922 -59.8828125 78.86328125 C-64.02926087 78.8709884 -67.9153209 79.19077112 -72 80 C-72 80.66 -72 81.32 -72 82 C-72.66 82 -73.32 82 -74 82 C-74 76.06 -74 70.12 -74 64 C-73.34 64 -72.68 64 -72 64 C-72 62.02 -72 60.04 -72 58 C-71.34 58 -70.68 58 -70 58 C-70 56.02 -70 54.04 -70 52 C-69.34 52 -68.68 52 -68 52 C-68 50.68 -68 49.36 -68 48 C-67.34 48 -66.68 48 -66 48 C-66 46.68 -66 45.36 -66 44 C-65.34 44 -64.68 44 -64 44 C-64 42.68 -64 41.36 -64 40 C-63.34 40 -62.68 40 -62 40 C-62 38.68 -62 37.36 -62 36 C-61.34 36 -60.68 36 -60 36 C-60 35.34 -60 34.68 -60 34 C-59.34 34 -58.68 34 -58 34 C-58 33.34 -58 32.68 -58 32 C-57.34 32 -56.68 32 -56 32 C-56 31.34 -56 30.68 -56 30 C-55.34 30 -54.68 30 -54 30 C-54 28.68 -54 27.36 -54 26 C-53.34 26 -52.68 26 -52 26 C-52 25.34 -52 24.68 -52 24 C-51.34 24 -50.68 24 -50 24 C-50 23.34 -50 22.68 -50 22 C-48.68 22 -47.36 22 -46 22 C-46 21.34 -46 20.68 -46 20 C-45.34 20 -44.68 20 -44 20 C-44 19.34 -44 18.68 -44 18 C-43.34 18 -42.68 18 -42 18 C-42 17.34 -42 16.68 -42 16 C-41.34 16 -40.68 16 -40 16 C-40 15.34 -40 14.68 -40 14 C-38.68 14 -37.36 14 -36 14 C-36 13.34 -36 12.68 -36 12 C-34.68 12 -33.36 12 -32 12 C-32 11.34 -32 10.68 -32 10 C-30.68 10 -29.36 10 -28 10 C-28 9.34 -28 8.68 -28 8 C-26.68 8 -25.36 8 -24 8 C-24 7.34 -24 6.68 -24 6 C-22.02 6 -20.04 6 -18 6 C-18 5.34 -18 4.68 -18 4 C-16.02 4 -14.04 4 -12 4 C-12 3.34 -12 2.68 -12 2 C-8.04 2 -4.08 2 0 2 C0 1.34 0 0.68 0 0 Z " fill="#F9AE51" transform="translate(306,240)"/>
<path d="M0 0 C20 0 20 0 28 4 C30.97969283 8.46953924 30.48328869 12.76053686 30 18 C28.875 21.0625 28.875 21.0625 27 23 C25.01621343 23.7134671 23.01654756 24.38519891 21 25 C21.33322266 25.47421387 21.66644531 25.94842773 22.00976562 26.43701172 C23.51135304 28.57966145 25.00574182 30.72723333 26.5 32.875 C27.02464844 33.62136719 27.54929687 34.36773437 28.08984375 35.13671875 C28.58613281 35.85214844 29.08242188 36.56757813 29.59375 37.3046875 C30.05458984 37.96452637 30.51542969 38.62436523 30.99023438 39.30419922 C32 41 32 41 32 43 C29.8203125 42.96875 29.8203125 42.96875 27 42 C25.01144651 39.68794243 23.49034244 37.08105239 21.875 34.5 C18.30427199 29.03423712 18.30427199 29.03423712 12.83984375 25.78515625 C9.51312103 25.45762051 9.51312103 25.45762051 5 26 C5 31.61 5 37.22 5 43 C3.35 43 1.7 43 0 43 C0 28.81 0 14.62 0 0 Z " fill="#192735" transform="translate(450,391)"/>
<path d="M0 0 C3.21722667 3.80269708 5.12760862 8.16136878 7.23046875 12.6328125 C7.62575272 13.46585907 8.02103668 14.29890564 8.42829895 15.15719604 C9.25997982 16.91283992 10.08941632 18.66954853 10.91674805 20.42724609 C12.18754743 23.12510069 13.46727478 25.81858671 14.74804688 28.51171875 C15.5552234 30.21849666 16.36188213 31.92551957 17.16796875 33.6328125 C17.55228561 34.44114532 17.93660248 35.24947815 18.33256531 36.08230591 C21 41.76969262 21 41.76969262 21 44 C19.35 44 17.7 44 16 44 C15.32880451 42.5437455 14.66318193 41.08492133 14 39.625 C13.62875 38.81289063 13.2575 38.00078125 12.875 37.1640625 C12 35 12 35 12 33 C4.41 33.33 -3.18 33.66 -11 34 C-12.65 37.3 -14.3 40.6 -16 44 C-17.65 44 -19.3 44 -21 44 C-17.45048622 35.11460893 -13.45779357 26.5026174 -9.26904297 17.9050293 C-8.23377502 15.7791832 -7.2044645 13.65052342 -6.17578125 11.52148438 C-5.51857126 10.16650069 -4.86103197 8.81167666 -4.203125 7.45703125 C-3.89586487 6.82175003 -3.58860474 6.18646881 -3.27203369 5.53193665 C-1.11566838 1.11566838 -1.11566838 1.11566838 0 0 Z " fill="#192639" transform="translate(276,390)"/>
<path d="M0 0 C2 1 2 1 2.73022461 2.88256836 C2.95202393 3.69346924 3.17382324 4.50437012 3.40234375 5.33984375 C3.65306641 6.23896484 3.90378906 7.13808594 4.16210938 8.06445312 C4.41798828 9.01255859 4.67386719 9.96066406 4.9375 10.9375 C5.44594688 12.78013229 5.95505977 14.62258093 6.46484375 16.46484375 C6.71476074 17.37733887 6.96467773 18.28983398 7.22216797 19.22998047 C8.23631727 22.84157432 9.33575031 26.42471984 10.45141602 30.00610352 C11 32 11 32 11 34 C11.66 34 12.32 34 13 34 C13.24621094 32.7625 13.49242187 31.525 13.74609375 30.25 C15.0605218 24.3391271 17.04291487 18.7010829 19.0625 13 C19.60874023 11.42798828 19.60874023 11.42798828 20.16601562 9.82421875 C22.8630354 2.1369646 22.8630354 2.1369646 24 1 C25.66617115 0.95936168 27.33388095 0.957279 29 1 C27.07222544 6.89193982 25.03426133 12.72867797 22.86328125 18.53515625 C22.57897751 19.29928329 22.29467377 20.06341034 22.00175476 20.85069275 C21.10676901 23.25516495 20.20967496 25.65884391 19.3125 28.0625 C18.69972921 29.70762994 18.08709779 31.35281179 17.47460938 32.99804688 C15.9846805 36.99929884 14.49286229 40.99984161 13 45 C12.34 45 11.68 45 11 45 C10.70230713 44.00556885 10.40461426 43.0111377 10.09790039 41.98657227 C8.99597254 38.30868139 7.88986587 34.63205858 6.7824707 30.95581055 C6.30313258 29.36240545 5.82493915 27.76865555 5.34790039 26.17456055 C4.66330485 23.88759913 3.97464589 21.60189619 3.28515625 19.31640625 C3.07157974 18.59973282 2.85800323 17.88305939 2.63795471 17.14466858 C1.82150574 13.80273211 1.82150574 13.80273211 0 11 C-0.19110352 11.60360352 -0.38220703 12.20720703 -0.57910156 12.82910156 C-7.59966912 34.98908797 -7.59966912 34.98908797 -11 45 C-14.22587826 41.30900931 -15.66709545 37.14631783 -17.35546875 32.62109375 C-17.66196854 31.8126149 -17.96846832 31.00413605 -18.28425598 30.17115784 C-18.92857038 28.46693488 -19.56967415 26.76149506 -20.20776367 25.05493164 C-21.18650059 22.44016999 -22.17742711 19.83026929 -23.16992188 17.22070312 C-23.79500151 15.5627753 -24.4193749 13.90458099 -25.04296875 12.24609375 C-25.3397905 11.46479599 -25.63661224 10.68349823 -25.94242859 9.87852478 C-27.09011554 6.79253443 -28 4.32060062 -28 1 C-26.35 1 -24.7 1 -23 1 C-22.8141333 1.54301758 -22.6282666 2.08603516 -22.43676758 2.64550781 C-18.91709925 12.89755867 -15.37704309 23.07601289 -11 33 C-10.08269317 30.1043681 -9.16609739 27.20851458 -8.25 24.3125 C-7.97776611 23.45285645 -7.70553223 22.59321289 -7.42504883 21.70751953 C-5.48738946 15.5772204 -3.60062259 9.43415331 -1.76171875 3.2734375 C-1 1 -1 1 0 0 Z " fill="#192838" transform="translate(172,390)"/>
<path d="M0 0 C1.65 0 3.3 0 5 0 C5 6.27 5 12.54 5 19 C12.92 19 20.84 19 29 19 C29 12.73 29 6.46 29 0 C30.65 0 32.3 0 34 0 C34 14.19 34 28.38 34 43 C32.35 43 30.7 43 29 43 C29 36.73 29 30.46 29 24 C21.08 24 13.16 24 5 24 C5 30.27 5 36.54 5 43 C3.35 43 1.7 43 0 43 C0 28.81 0 14.62 0 0 Z " fill="#596776" transform="translate(351,391)"/>
<path d="M0 0 C5.28 0 10.56 0 16 0 C16 0.33 16 0.66 16 1 C20.95 1.495 20.95 1.495 26 2 C26 2.66 26 3.32 26 4 C27.32 4 28.64 4 30 4 C30 4.66 30 5.32 30 6 C28.68 6 27.36 6 26 6 C26 6.66 26 7.32 26 8 C24.42702148 8.02187378 24.42702148 8.02187378 22.82226562 8.04418945 C18.90070918 8.10252633 14.97970585 8.17975437 11.05859375 8.26245117 C9.36727939 8.29553509 7.67585901 8.32361759 5.984375 8.34643555 C3.54121061 8.38028836 1.09900345 8.43261508 -1.34375 8.48828125 C-2.46299866 8.49786613 -2.46299866 8.49786613 -3.6048584 8.50764465 C-8.99226892 8.65572536 -13.00570389 9.99054509 -18 12 C-21.5 12.1875 -21.5 12.1875 -24 12 C-24 12.66 -24 13.32 -24 14 C-30.625 18 -30.625 18 -34 18 C-34 18.66 -34 19.32 -34 20 C-34.66 20 -35.32 20 -36 20 C-36 20.66 -36 21.32 -36 22 C-37.32 22 -38.64 22 -40 22 C-40 22.66 -40 23.32 -40 24 C-40.66 24 -41.32 24 -42 24 C-42 24.66 -42 25.32 -42 26 C-42.66 26 -43.32 26 -44 26 C-44 26.66 -44 27.32 -44 28 C-44.66 28 -45.32 28 -46 28 C-46 28.66 -46 29.32 -46 30 C-46.66 30 -47.32 30 -48 30 C-48.33 30.99 -48.66 31.98 -49 33 C-49.33 33 -49.66 33 -50 33 C-50 30.69 -50 28.38 -50 26 C-49.34 26 -48.68 26 -48 26 C-48 24.68 -48 23.36 -48 22 C-47.34 22 -46.68 22 -46 22 C-46 21.34 -46 20.68 -46 20 C-45.34 20 -44.68 20 -44 20 C-44 19.34 -44 18.68 -44 18 C-43.34 18 -42.68 18 -42 18 C-42 17.34 -42 16.68 -42 16 C-41.34 16 -40.68 16 -40 16 C-40 15.34 -40 14.68 -40 14 C-38.68 14 -37.36 14 -36 14 C-36 13.34 -36 12.68 -36 12 C-34.68 12 -33.36 12 -32 12 C-32 11.34 -32 10.68 -32 10 C-30.68 10 -29.36 10 -28 10 C-28 9.34 -28 8.68 -28 8 C-26.68 8 -25.36 8 -24 8 C-24 7.34 -24 6.68 -24 6 C-22.02 6 -20.04 6 -18 6 C-18 5.34 -18 4.68 -18 4 C-16.02 4 -14.04 4 -12 4 C-12 3.34 -12 2.68 -12 2 C-8.04 2 -4.08 2 0 2 C0 1.34 0 0.68 0 0 Z " fill="#F9AA38" transform="translate(306,240)"/>
<path d="M0 0 C9.9 0 19.8 0 30 0 C30 1.32 30 2.64 30 4 C21.75 4 13.5 4 5 4 C5 8.95 5 13.9 5 19 C12.92 19 20.84 19 29 19 C29 20.32 29 21.64 29 23 C21.08 23 13.16 23 5 23 C5 28.28 5 33.56 5 39 C13.25 39 21.5 39 30 39 C30 40.32 30 41.64 30 43 C20.1 43 10.2 43 0 43 C0 28.81 0 14.62 0 0 Z " fill="#222E3D" transform="translate(214,391)"/>
<path d="M0 0 C9.57 0 19.14 0 29 0 C29 1.32 29 2.64 29 4 C21.08 4 13.16 4 5 4 C5 8.95 5 13.9 5 19 C12.59 19 20.18 19 28 19 C28 20.32 28 21.64 28 23 C20.41 23 12.82 23 5 23 C5 28.28 5 33.56 5 39 C12.92 39 20.84 39 29 39 C29 40.32 29 41.64 29 43 C19.43 43 9.86 43 0 43 C0 28.81 0 14.62 0 0 Z " fill="#1A2B3F" transform="translate(404,391)"/>
<path d="M0 0 C2.536875 -0.103125 5.07375 -0.20625 7.6875 -0.3125 C8.47729248 -0.35802002 9.26708496 -0.40354004 10.08081055 -0.45043945 C14.13749332 -0.52994202 15.62687073 -0.28412596 18.98046875 2.26953125 C21.68692061 5.92873792 21.68692061 5.92873792 21.625 9 C21.63789063 9.639375 21.65078125 10.27875 21.6640625 10.9375 C20.56373241 14.3549958 18.83267268 15.84301071 16 18 C13.18880993 18.58422738 10.54258997 18.4770543 7.6875 18.3125 C5.150625 18.209375 2.61375 18.10625 0 18 C0 12.06 0 6.12 0 0 Z " fill="#EFEFF2" transform="translate(455,395)"/>
<path d="M0 0 C11.88 0 23.76 0 36 0 C36 1.32 36 2.64 36 4 C31.05 4 26.1 4 21 4 C21 16.87 21 29.74 21 43 C19.35 43 17.7 43 16 43 C16 30.13 16 17.26 16 4 C10.72 4 5.44 4 0 4 C0 2.68 0 1.36 0 0 Z " fill="#1E2E3E" transform="translate(301,391)"/>
<path d="M0 0 C1.32 0 2.64 0 4 0 C4 14.19 4 28.38 4 43 C2.68 43 1.36 43 0 43 C0 36.4 0 29.8 0 23 C-8.25 23 -16.5 23 -25 23 C-25 22.01 -25 21.02 -25 20 C-16.75 20 -8.5 20 0 20 C0 13.4 0 6.8 0 0 Z " fill="#0F1723" transform="translate(381,391)"/>
<path d="M0 0 C20 0 20 0 28 4 C28.33 5.32 28.66 6.64 29 8 C28.01 7.34 27.02 6.68 26 6 C25.01 6 24.02 6 23 6 C22.34 5.67 21.68 5.34 21 5 C18.11932263 4.76713087 15.25987481 4.5805406 12.375 4.4375 C9.61125 4.293125 6.8475 4.14875 4 4 C4 9.94 4 15.88 4 22 C3.34 22 2.68 22 2 22 C1.67 28.6 1.34 35.2 1 42 C1.66 42 2.32 42 3 42 C3 36.72 3 31.44 3 26 C3.33 26 3.66 26 4 26 C4 31.61 4 37.22 4 43 C2.68 43 1.36 43 0 43 C0 28.81 0 14.62 0 0 Z " fill="#111D32" transform="translate(450,391)"/>
<path d="M0 0 C3 1 3 1 4.82421875 4.4921875 C5.45645873 5.94833599 6.07711137 7.40955756 6.6875 8.875 C7.00783203 9.60847656 7.32816406 10.34195312 7.65820312 11.09765625 C10 16.58015725 10 16.58015725 10 20 C4.06 20 -1.88 20 -8 20 C-5.83836487 13.06001352 -3.1063786 6.56882431 0 0 Z " fill="#E1E5E5" transform="translate(275,399)"/>
<path d="M0 0 C1.32 0 2.64 0 4 0 C4 0.66 4 1.32 4 2 C5.98 2 7.96 2 10 2 C10 2.66 10 3.32 10 4 C8.02 4 6.04 4 4 4 C4 4.66 4 5.32 4 6 C-2.625 10 -2.625 10 -6 10 C-6 10.66 -6 11.32 -6 12 C-6.66 12 -7.32 12 -8 12 C-8 12.66 -8 13.32 -8 14 C-9.32 14 -10.64 14 -12 14 C-12 14.66 -12 15.32 -12 16 C-12.66 16 -13.32 16 -14 16 C-14 16.66 -14 17.32 -14 18 C-14.66 18 -15.32 18 -16 18 C-16 18.66 -16 19.32 -16 20 C-16.66 20 -17.32 20 -18 20 C-18 20.66 -18 21.32 -18 22 C-18.66 22 -19.32 22 -20 22 C-20.33 22.99 -20.66 23.98 -21 25 C-21.33 25 -21.66 25 -22 25 C-22 22.69 -22 20.38 -22 18 C-21.34 18 -20.68 18 -20 18 C-20 16.68 -20 15.36 -20 14 C-19.34 14 -18.68 14 -18 14 C-18 13.34 -18 12.68 -18 12 C-17.34 12 -16.68 12 -16 12 C-16 11.34 -16 10.68 -16 10 C-15.34 10 -14.68 10 -14 10 C-14 9.34 -14 8.68 -14 8 C-13.34 8 -12.68 8 -12 8 C-12 7.34 -12 6.68 -12 6 C-10.68 6 -9.36 6 -8 6 C-8 5.34 -8 4.68 -8 4 C-6.68 4 -5.36 4 -4 4 C-4 3.34 -4 2.68 -4 2 C-2.68 2 -1.36 2 0 2 C0 1.34 0 0.68 0 0 Z " fill="#F8A22C" transform="translate(278,248)"/>
<path d="M0 0 C0.33 0.66 0.66 1.32 1 2 C1.66 2 2.32 2 3 2 C2.01 4.97 1.02 7.94 0 11 C1.27617187 10.96519531 2.55234375 10.93039062 3.8671875 10.89453125 C5.53644521 10.86639769 7.2057171 10.83909707 8.875 10.8125 C10.13763672 10.77479492 10.13763672 10.77479492 11.42578125 10.73632812 C12.23144531 10.72666016 13.03710938 10.71699219 13.8671875 10.70703125 C14.98262939 10.68346558 14.98262939 10.68346558 16.12060547 10.65942383 C17.05090576 10.82800903 17.05090576 10.82800903 18 11 C18.99 12.485 18.99 12.485 20 14 C12.74 14 5.48 14 -2 14 C-2.66 15.98 -3.32 17.96 -4 20 C-4.97004121 22.01470098 -5.96244882 24.01922047 -7 26 C-8.65 26 -10.3 26 -12 26 C-8.45448881 17.07903637 -4.37915338 8.53114607 0 0 Z " fill="#0B1524" transform="translate(267,408)"/>
<path d="M0 0 C5.28 0 10.56 0 16 0 C16 0.33 16 0.66 16 1 C19.3 1.33 22.6 1.66 26 2 C26 2.66 26 3.32 26 4 C25.34 4 24.68 4 24 4 C24 4.66 24 5.32 24 6 C16.64206267 6.91160286 9.41017023 7.11459026 2 7 C2 6.67 2 6.34 2 6 C3.98 6 5.96 6 8 6 C8 5.34 8 4.68 8 4 C2.72 4 -2.56 4 -8 4 C-8 3.34 -8 2.68 -8 2 C-5.36 2 -2.72 2 0 2 C0 1.34 0 0.68 0 0 Z " fill="#E9AA3D" transform="translate(306,240)"/>
<path d="M0 0 C4.6875 0.78125 4.6875 0.78125 9.375 1.5625 C10.674375 1.7790625 10.674375 1.7790625 12 2 C11.67 3.32 11.34 4.64 11 6 C11.99 6.33 12.98 6.66 14 7 C14 7.99 14 8.98 14 10 C14.99 10 15.98 10 17 10 C17.33 11.98 17.66 13.96 18 16 C26.91 16 35.82 16 45 16 C44.67 16.66 44.34 17.32 44 18 C43.42556152 18.02505615 42.85112305 18.0501123 42.25927734 18.07592773 C39.63100279 18.19269875 37.00301605 18.31505419 34.375 18.4375 C33.47136719 18.47681641 32.56773437 18.51613281 31.63671875 18.55664062 C27.01783854 18.77578458 22.54846364 19.1008851 18 20 C17.34 18.02 16.68 16.04 16 14 C15.34 14 14.68 14 14 14 C12.64613064 12.34997172 11.31321858 10.6825613 10 9 C9.34 8.67 8.68 8.34 8 8 C8 7.34 8 6.68 8 6 C7.34 6 6.68 6 6 6 C6 5.34 6 4.68 6 4 C4.02 3.34 2.04 2.68 0 2 C0 1.34 0 0.68 0 0 Z " fill="#FB951B" transform="translate(266,320)"/>
<path d="M0 0 C1.32 0 2.64 0 4 0 C4 0.66 4 1.32 4 2 C5.32 2 6.64 2 8 2 C8 2.66 8 3.32 8 4 C9.32 4 10.64 4 12 4 C12 4.66 12 5.32 12 6 C13.32 6 14.64 6 16 6 C16 6.66 16 7.32 16 8 C16.66 8 17.32 8 18 8 C18 8.66 18 9.32 18 10 C18.66 10 19.32 10 20 10 C20 10.66 20 11.32 20 12 C19.34 12 18.68 12 18 12 C17.67 13.65 17.34 15.3 17 17 C15.35 16.67 13.7 16.34 12 16 C12 15.34 12 14.68 12 14 C11.34 14 10.68 14 10 14 C10 13.34 10 12.68 10 12 C9.34 12 8.68 12 8 12 C8 11.34 8 10.68 8 10 C7.34 10 6.68 10 6 10 C6 8.68 6 7.36 6 6 C5.34 6 4.68 6 4 6 C4 6.66 4 7.32 4 8 C3.34 8 2.68 8 2 8 C2 6.02 2 4.04 2 2 C1.34 2 0.68 2 0 2 C0 1.34 0 0.68 0 0 Z " fill="#FAAE38" transform="translate(344,248)"/>
<path d="M0 0 C0.66 0 1.32 0 2 0 C3.18224668 3.54674003 2.89329634 5.97522995 2.5625 9.6875 C2.46066406 10.86699219 2.35882813 12.04648437 2.25390625 13.26171875 C2.17011719 14.16535156 2.08632812 15.06898438 2 16 C2.66 16 3.32 16 4 16 C4 15.34 4 14.68 4 14 C4.66 14 5.32 14 6 14 C6 14.66 6 15.32 6 16 C12.6 16 19.2 16 26 16 C26 16.66 26 17.32 26 18 C25.42556152 18.02505615 24.85112305 18.0501123 24.25927734 18.07592773 C21.63100279 18.19269875 19.00301605 18.31505419 16.375 18.4375 C15.47136719 18.47681641 14.56773437 18.51613281 13.63671875 18.55664062 C9.01783854 18.77578458 4.54846364 19.1008851 0 20 C0 20.66 0 21.32 0 22 C-0.66 22 -1.32 22 -2 22 C-2 16.06 -2 10.12 -2 4 C-1.34 4 -0.68 4 0 4 C0 2.68 0 1.36 0 0 Z " fill="#FC9312" transform="translate(234,300)"/>
<path d="M0 0 C1.32 0 2.64 0 4 0 C4 6.27 4 12.54 4 19 C3.01 19 2.02 19 1 19 C1 26.26 1 33.52 1 41 C1.66 41 2.32 41 3 41 C3 35.39 3 29.78 3 24 C3.33 24 3.66 24 4 24 C4 30.27 4 36.54 4 43 C2.68 43 1.36 43 0 43 C0 28.81 0 14.62 0 0 Z " fill="#23262D" transform="translate(351,391)"/>
<path d="M0 0 C3 3.75 3 3.75 3 6 C3.66 6 4.32 6 5 6 C6.00484204 7.95585325 7.00373805 9.91476237 8 11.875 C8.556875 12.96554687 9.11375 14.05609375 9.6875 15.1796875 C11 18 11 18 11 20 C9.35 20 7.7 20 6 20 C5.32880451 18.5437455 4.66318193 17.08492133 4 15.625 C3.62875 14.81289063 3.2575 14.00078125 2.875 13.1640625 C2 11 2 11 2 9 C-5.59 9 -13.18 9 -21 9 C-20.34 8.01 -19.68 7.02 -19 6 C-17.12060547 5.65942383 -17.12060547 5.65942383 -14.8671875 5.70703125 C-14.06152344 5.71669922 -13.25585938 5.72636719 -12.42578125 5.73632812 C-11.58402344 5.76146484 -10.74226563 5.78660156 -9.875 5.8125 C-9.02550781 5.82603516 -8.17601562 5.83957031 -7.30078125 5.85351562 C-5.20025163 5.88891781 -3.10004707 5.94272599 -1 6 C-0.67 4.02 -0.34 2.04 0 0 Z " fill="#3A4B59" transform="translate(286,414)"/>
<path d="M0 0 C11.88 0 23.76 0 36 0 C36 1.32 36 2.64 36 4 C31.05 4 26.1 4 21 4 C21 3.34 21 2.68 21 2 C20.34644531 2.15339844 19.69289063 2.30679687 19.01953125 2.46484375 C15.24507841 3.13379594 11.51094004 3.35407297 7.6875 3.5625 C6.94693359 3.60568359 6.20636719 3.64886719 5.44335938 3.69335938 C3.62908536 3.79870432 1.8145645 3.89978316 0 4 C0 2.68 0 1.36 0 0 Z " fill="#16212A" transform="translate(301,391)"/>
<path d="M0 0 C1.32 0 2.64 0 4 0 C4.27636173 7.63065446 3.82053525 14.17761562 0 21 C-0.33 19.68 -0.66 18.36 -1 17 C-1.12375 17.804375 -1.2475 18.60875 -1.375 19.4375 C-1.684375 20.7059375 -1.684375 20.7059375 -2 22 C-2.66 22.33 -3.32 22.66 -4 23 C-4.40756134 15.19595509 -3.63149275 8.38999519 -1 1 C-0.67 0.67 -0.34 0.34 0 0 Z " fill="#239FDB" transform="translate(188,280)"/>
<path d="M0 0 C0.33 0 0.66 0 1 0 C1 5.94 1 11.88 1 18 C4.63 18 8.26 18 12 18 C12 18.99 12 19.98 12 21 C8.37 21 4.74 21 1 21 C1 26.94 1 32.88 1 39 C-0.32 38.67 -1.64 38.34 -3 38 C-3 30.41 -3 22.82 -3 15 C-2.67 15.99 -2.34 16.98 -2 18 C-1.34 18 -0.68 18 0 18 C0 12.06 0 6.12 0 0 Z " fill="#495764" transform="translate(454,395)"/>
<path d="M0 0 C0.66 0 1.32 0 2 0 C2 14.52 2 29.04 2 44 C1.67 44 1.34 44 1 44 C-0.75906474 35.28440729 -1.28085355 26.9409143 -1.1875 18.0625 C-1.18685547 16.87076172 -1.18621094 15.67902344 -1.18554688 14.45117188 C-1.16045654 9.4860731 -1.11769605 4.85598517 0 0 Z " fill="#2991CD" transform="translate(182,304)"/>
<path d="M0 0 C0.66 0 1.32 0 2 0 C1.8125 2.3125 1.8125 2.3125 1 5 C0.175 5.45375 -0.65 5.9075 -1.5 6.375 C-4.39606923 7.83920553 -4.39606923 7.83920553 -4.75 11.5 C-4.8325 12.655 -4.915 13.81 -5 15 C-5.33 15.99 -5.66 16.98 -6 18 C-6.763125 18.350625 -7.52625 18.70125 -8.3125 19.0625 C-12.43965289 22.03788929 -13.41906392 26.29251995 -15 31 C-15.33 31 -15.66 31 -16 31 C-16 28.69 -16 26.38 -16 24 C-15.34 24 -14.68 24 -14 24 C-14 22.68 -14 21.36 -14 20 C-13.34 20 -12.68 20 -12 20 C-12 18.68 -12 17.36 -12 16 C-11.34 16 -10.68 16 -10 16 C-10 14.68 -10 13.36 -10 12 C-9.34 12 -8.68 12 -8 12 C-8 10.68 -8 9.36 -8 8 C-7.34 8 -6.68 8 -6 8 C-6 7.34 -6 6.68 -6 6 C-5.34 6 -4.68 6 -4 6 C-4 5.34 -4 4.68 -4 4 C-3.34 4 -2.68 4 -2 4 C-2 3.34 -2 2.68 -2 2 C-1.34 2 -0.68 2 0 2 C0 1.34 0 0.68 0 0 Z " fill="#EF9738" transform="translate(252,268)"/>
<path d="M0 0 C0.66 0.66 1.32 1.32 2 2 C1.63784632 7.27427453 0.17028879 11.99152865 -1.5625 16.9375 C-1.79646484 17.62134766 -2.03042969 18.30519531 -2.27148438 19.00976562 C-2.84211829 20.67508501 -3.42027098 22.33782493 -4 24 C-6.41445371 20.97060499 -7.46292236 18.86695903 -8 15 C-6.35 14.67 -4.7 14.34 -3 14 C-3.0928125 12.7625 -3.0928125 12.7625 -3.1875 11.5 C-2.95275338 7.11806304 -1.67381346 4.04504918 0 0 Z " fill="#182431" transform="translate(165,411)"/>
<path d="M0 0 C7.26 0 14.52 0 22 0 C22 0.66 22 1.32 22 2 C23.423125 1.938125 23.423125 1.938125 24.875 1.875 C28 2 28 2 30 4 C25.82262526 5.59138085 22.46839215 6.21278058 18 6 C18 5.34 18 4.68 18 4 C18.66 4 19.32 4 20 4 C20 3.01 20 2.02 20 1 C19.39414062 1.15597656 18.78828125 1.31195313 18.1640625 1.47265625 C11.81141631 2.94842483 6.43065325 3.01248583 0 2 C0 1.34 0 0.68 0 0 Z " fill="#F8CCA3" transform="translate(304,248)"/>
<path d="M0 0 C2.77585605 3.41841532 4.77483662 7.14875034 6.75 11.0625 C7.24306641 11.99932617 7.24306641 11.99932617 7.74609375 12.95507812 C8.57749772 14.59859188 9.29674412 16.29770708 10 18 C9.67 18.99 9.34 19.98 9 21 C8.34 19.68 7.68 18.36 7 17 C6.34 17.66 5.68 18.32 5 19 C3.82625827 16.56568361 2.66084237 14.12795818 1.5 11.6875 C1.16613281 10.99720703 0.83226562 10.30691406 0.48828125 9.59570312 C-2 4.33984375 -2 4.33984375 -2 1 C-1.34 0.67 -0.68 0.34 0 0 Z " fill="#162433" transform="translate(280,399)"/>
<path d="M0 0 C1.03165283 0.01571045 2.06330566 0.0314209 3.1262207 0.04760742 C4.24448242 0.05727539 5.36274414 0.06694336 6.51489258 0.0769043 C8.26576172 0.11460937 8.26576172 0.11460937 10.05200195 0.15307617 C11.23084961 0.16661133 12.40969727 0.18014648 13.62426758 0.1940918 C16.53813606 0.22948291 19.4510914 0.27885808 22.36450195 0.34057617 C22.03450195 1.66057617 21.70450195 2.98057617 21.36450195 4.34057617 C12.45450195 4.01057617 3.54450195 3.68057617 -5.63549805 3.34057617 C-2.63549805 0.34057617 -2.63549805 0.34057617 0 0 Z " fill="#2C4456" transform="translate(221.635498046875,429.659423828125)"/>
<path d="M0 0 C1.11002992 3.33008975 0.68516272 4.65983176 0 8 C0.33 8.66 0.66 9.32 1 10 C0.00390625 12.3828125 0.00390625 12.3828125 -1.4375 15.125 C-1.91058594 16.03507812 -2.38367188 16.94515625 -2.87109375 17.8828125 C-3.24363281 18.58148438 -3.61617188 19.28015625 -4 20 C-5.65 20 -7.3 20 -9 20 C-6.23345343 13.19701662 -3.3850895 6.51943164 0 0 Z " fill="#1A2732" transform="translate(264,414)"/>
<path d="M0 0 C1.98 0 3.96 0 6 0 C6 4 6 4 5 7 C5.99 7.33 6.98 7.66 8 8 C8 8.66 8 9.32 8 10 C7.34 10 6.68 10 6 10 C6 10.66 6 11.32 6 12 C5.34 12 4.68 12 4 12 C4 11.34 4 10.68 4 10 C2.68 10 1.36 10 0 10 C0 9.34 0 8.68 0 8 C-1.32 8 -2.64 8 -4 8 C-4 7.34 -4 6.68 -4 6 C-2.68 6 -1.36 6 0 6 C0 4.02 0 2.04 0 0 Z " fill="#4CB5E0" transform="translate(352,242)"/>
<path d="M0 0 C0.99 0 1.98 0 3 0 C3 6.27 3 12.54 3 19 C2.01 19 1.02 19 0 19 C0 12.73 0 6.46 0 0 Z " fill="#0F203A" transform="translate(352,391)"/>
<path d="M0 0 C2.64 0 5.28 0 8 0 C8 0.66 8 1.32 8 2 C10.64 2 13.28 2 16 2 C16.33 1.34 16.66 0.68 17 0 C17.99 0.66 18.98 1.32 20 2 C19.34 2 18.68 2 18 2 C18 2.66 18 3.32 18 4 C17.34 4 16.68 4 16 4 C15.67 4.99 15.34 5.98 15 7 C7.575 4.03 7.575 4.03 0 1 C0 0.67 0 0.34 0 0 Z " fill="#45B1E4" transform="translate(346,200)"/>
<path d="M0 0 C2.74792483 3.40219265 6 7.48464588 6 12 C4.35 12 2.7 12 1 12 C-2.0669145 6.60223048 -2.0669145 6.60223048 -1.75 3.75 C-1.20662295 2.48212021 -0.61689185 1.2337837 0 0 Z " fill="#1F2932" transform="translate(291,422)"/>
<path d="M0 0 C0.66 0 1.32 0 2 0 C2 1.32 2 2.64 2 4 C2.66 4 3.32 4 4 4 C4 4.66 4 5.32 4 6 C3.34 6 2.68 6 2 6 C2 6.66 2 7.32 2 8 C1.34 8 0.68 8 0 8 C0 8.66 0 9.32 0 10 C-0.66 10 -1.32 10 -2 10 C-2.33 10.99 -2.66 11.98 -3 13 C-3.33 13 -3.66 13 -4 13 C-4 10.69 -4 8.38 -4 6 C-3.34 6 -2.68 6 -2 6 C-2 4.68 -2 3.36 -2 2 C-1.34 2 -0.68 2 0 2 C0 1.34 0 0.68 0 0 Z " fill="#FA9E22" transform="translate(260,260)"/>
<path d="M0 0 C2.64 0 5.28 0 8 0 C8 2.64 8 5.28 8 8 C7.34 8 6.68 8 6 8 C6 7.34 6 6.68 6 6 C4.68 6 3.36 6 2 6 C2 5.34 2 4.68 2 4 C1.34 4 0.68 4 0 4 C0 2.68 0 1.36 0 0 Z " fill="#FA971C" transform="translate(318,338)"/>
<path d="M0 0 C1.32 0 2.64 0 4 0 C4 0.66 4 1.32 4 2 C5.32 2 6.64 2 8 2 C8 2.66 8 3.32 8 4 C8.66 4 9.32 4 10 4 C10 4.66 10 5.32 10 6 C10.66 6 11.32 6 12 6 C12 6.66 12 7.32 12 8 C10.02 8 8.04 8 6 8 C6 6.68 6 5.36 6 4 C4.02 4 2.04 4 0 4 C0 2.68 0 1.36 0 0 Z " fill="#E7AD46" transform="translate(362,260)"/>
<path d="M0 0 C3.91211733 1.15585285 6.8745041 2.35534962 10 5 C6.50772123 7.9933818 4.57771077 8 0 8 C0 7.34 0 6.68 0 6 C0.66 6 1.32 6 2 6 C2 5.34 2 4.68 2 4 C1.34 4 0.68 4 0 4 C0 2.68 0 1.36 0 0 Z " fill="#6FC4EA" transform="translate(370,210)"/>
<path d="M0 0 C4.6875 0.78125 4.6875 0.78125 9.375 1.5625 C10.674375 1.7790625 10.674375 1.7790625 12 2 C11.67 3.32 11.34 4.64 11 6 C9.35 6 7.7 6 6 6 C6 5.34 6 4.68 6 4 C4.02 3.34 2.04 2.68 0 2 C0 1.34 0 0.68 0 0 Z " fill="#F7941A" transform="translate(266,320)"/>
<path d="M0 0 C0.66 0 1.32 0 2 0 C0.24009216 5.91969002 -2.39694605 11.41634992 -5 17 C-5.33 17 -5.66 17 -6 17 C-6 14.69 -6 12.38 -6 10 C-5.34 10 -4.68 10 -4 10 C-4 8.68 -4 7.36 -4 6 C-3.34 6 -2.68 6 -2 6 C-2 4.68 -2 3.36 -2 2 C-1.34 2 -0.68 2 0 2 C0 1.34 0 0.68 0 0 Z " fill="#FA971C" transform="translate(242,282)"/>
<path d="M0 0 C1.58203125 1.671875 1.58203125 1.671875 3 4 C2.63671875 6.578125 2.63671875 6.578125 1.6875 9.25 C1.38199219 10.14203125 1.07648438 11.0340625 0.76171875 11.953125 C0.51035156 12.62859375 0.25898438 13.3040625 0 14 C-0.66 14 -1.32 14 -2 14 C-3.25127906 10.45332822 -2.72285053 8.27746562 -1.5625 4.75 C-1.27503906 3.85796875 -0.98757812 2.9659375 -0.69140625 2.046875 C-0.46324219 1.37140625 -0.23507813 0.6959375 0 0 Z " fill="#243140" transform="translate(168,399)"/>
<path d="M0 0 C0.33 0.66 0.66 1.32 1 2 C-0.32 2 -1.64 2 -3 2 C-3.33 3.32 -3.66 4.64 -4 6 C-7.96 5.67 -11.92 5.34 -16 5 C-16 4.01 -16 3.02 -16 2 C-10.72 1.34 -5.44 0.68 0 0 Z " fill="#081824" transform="translate(471,412)"/>
<path d="M0 0 C1.98 0 3.96 0 6 0 C6 0.66 6 1.32 6 2 C4.68 2 3.36 2 2 2 C2 2.66 2 3.32 2 4 C-1.96 4 -5.92 4 -10 4 C-10 3.34 -10 2.68 -10 2 C-6.7 2 -3.4 2 0 2 C0 1.34 0 0.68 0 0 Z " fill="#FEAD27" transform="translate(330,244)"/>
<path d="M0 0 C0.33 0 0.66 0 1 0 C1 5.28 1 10.56 1 16 C3.97 16 6.94 16 10 16 C10 16.33 10 16.66 10 17 C6.04 17 2.08 17 -2 17 C-1.34 11.39 -0.68 5.78 0 0 Z " fill="#0C2135" transform="translate(218,415)"/>
<path d="M0 0 C0.66 0 1.32 0 2 0 C3.231394 3.69418201 2.64432764 6.2056261 2 10 C0.68 10 -0.64 10 -2 10 C-2 8.02 -2 6.04 -2 4 C-1.34 4 -0.68 4 0 4 C0 2.68 0 1.36 0 0 Z " fill="#F09129" transform="translate(234,300)"/>
<path d="M0 0 C1.2065625 0.0309375 1.2065625 0.0309375 2.4375 0.0625 C2.4375 0.7225 2.4375 1.3825 2.4375 2.0625 C1.1175 2.0625 -0.2025 2.0625 -1.5625 2.0625 C-1.5625 2.7225 -1.5625 3.3825 -1.5625 4.0625 C-0.2425 4.0625 1.0775 4.0625 2.4375 4.0625 C2.4375 4.7225 2.4375 5.3825 2.4375 6.0625 C3.0975 6.0625 3.7575 6.0625 4.4375 6.0625 C4.4375 6.7225 4.4375 7.3825 4.4375 8.0625 C1.7975 7.4025 -0.8425 6.7425 -3.5625 6.0625 C-3.605221 4.39638095 -3.60313832 2.72867115 -3.5625 1.0625 C-2.5625 0.0625 -2.5625 0.0625 0 0 Z " fill="#F9B02B" transform="translate(339.5625,245.9375)"/>
<path d="M0 0 C0.66 0 1.32 0 2 0 C1.36843005 5.05255964 -0.13459373 9.29593201 -2 14 C-2.66 14 -3.32 14 -4 14 C-4 12.02 -4 10.04 -4 8 C-3.34 8 -2.68 8 -2 8 C-2 6.68 -2 5.36 -2 4 C-1.34 4 -0.68 4 0 4 C0 2.68 0 1.36 0 0 Z " fill="#F79D21" transform="translate(330,322)"/>
<path d="M0 0 C0.66 0.66 1.32 1.32 2 2 C1.67889311 5.53217579 1.12183498 8.63449506 0 12 C-0.66 12 -1.32 12 -2 12 C-3.12377697 8.69564916 -2.89554742 6.9493138 -1.5625 3.75 C-1.27503906 3.04359375 -0.98757812 2.3371875 -0.69140625 1.609375 C-0.46324219 1.07828125 -0.23507813 0.5471875 0 0 Z " fill="#1D2735" transform="translate(165,411)"/>
<path d="M0 0 C3 1 3 1 4.125 2.9375 C4.41375 3.618125 4.7025 4.29875 5 5 C5.33 5.66 5.66 6.32 6 7 C4.125 8.0625 4.125 8.0625 2 9 C0 8 0 8 -0.6875 6.1875 C-1.02688538 3.81180233 -0.72856341 2.26664171 0 0 Z " fill="#263645" transform="translate(156,418)"/>
<path d="M0 0 C0.66 0 1.32 0 2 0 C1.8125 2.3125 1.8125 2.3125 1 5 C-1.5625 6.6875 -1.5625 6.6875 -4 8 C-4 8.66 -4 9.32 -4 10 C-4.66 10 -5.32 10 -6 10 C-6 8.68 -6 7.36 -6 6 C-5.34 6 -4.68 6 -4 6 C-4 5.34 -4 4.68 -4 4 C-3.34 4 -2.68 4 -2 4 C-2 3.34 -2 2.68 -2 2 C-1.34 2 -0.68 2 0 2 C0 1.34 0 0.68 0 0 Z " fill="#F99918" transform="translate(252,268)"/>
<path d="M0 0 C0 0.66 0 1.32 0 2 C-0.99 2.33 -1.98 2.66 -3 3 C-3.33 3.99 -3.66 4.98 -4 6 C-5.32 6 -6.64 6 -8 6 C-8 5.01 -8 4.02 -8 3 C-8.66 2.67 -9.32 2.34 -10 2 C-6.38026598 0.68373308 -3.90432869 0 0 0 Z " fill="#26B2E2" transform="translate(272,198)"/>
<path d="M0 0 C2.875 -0.125 2.875 -0.125 6 0 C6.66 0.66 7.32 1.32 8 2 C3.82262526 3.59138085 0.46839215 4.21278058 -4 4 C-4 3.34 -4 2.68 -4 2 C-2.68 2 -1.36 2 0 2 C0 1.34 0 0.68 0 0 Z " fill="#F7D8AE" transform="translate(326,250)"/>
<path d="M0 0 C0.33 0.99 0.66 1.98 1 3 C-0.25 5.1875 -0.25 5.1875 -2 7 C-2.99 7 -3.98 7 -5 7 C-5 7.99 -5 8.98 -5 10 C-5.66 10 -6.32 10 -7 10 C-7.33 10.66 -7.66 11.32 -8 12 C-7.67 10.02 -7.34 8.04 -7 6 C-5.68 6 -4.36 6 -3 6 C-2.814375 5.071875 -2.814375 5.071875 -2.625 4.125 C-2 2 -2 2 0 0 Z " fill="#233546" transform="translate(475,408)"/>
<path d="M0 0 C2.02551922 0.50637981 4.04811323 1.01312179 6.0625 1.5625 C8.15667366 2.11013044 8.15667366 2.11013044 11 2 C11 2.66 11 3.32 11 4 C7.7 4 4.4 4 1 4 C0.67 2.68 0.34 1.36 0 0 Z " fill="#FEFEFE" transform="translate(471,622)"/>
<path d="M0 0 C0.99 0.33 1.98 0.66 3 1 C2.67 2.65 2.34 4.3 2 6 C1.34 6 0.68 6 0 6 C0 5.34 0 4.68 0 4 C-2.97 3.505 -2.97 3.505 -6 3 C-6 2.67 -6 2.34 -6 2 C-4.02 2 -2.04 2 0 2 C0 1.34 0 0.68 0 0 Z " fill="#FAA029" transform="translate(324,296)"/>
<path d="M0 0 C2.64465038 3.1254959 3.84414715 6.08788267 5 10 C4.34 9.67 3.68 9.34 3 9 C3 8.34 3 7.68 3 7 C0.525 6.01 0.525 6.01 -2 5 C-1.34 3.35 -0.68 1.7 0 0 Z " fill="#12212F" transform="translate(291,422)"/>
<path d="M0 0 C2.95183101 2.95183101 3.08663988 5.95511947 4 10 C2.68 9.67 1.36 9.34 0 9 C0 6.03 0 3.06 0 0 Z " fill="#48B5DF" transform="translate(434,270)"/>
<path d="M0 0 C1.65 1.32 3.3 2.64 5 4 C4.67 5.32 4.34 6.64 4 8 C3.34 8 2.68 8 2 8 C2 7.34 2 6.68 2 6 C1.34 6 0.68 6 0 6 C0 4.02 0 2.04 0 0 Z " fill="#F6E1BC" transform="translate(360,266)"/>
<path d="M0 0 C1.98 0 3.96 0 6 0 C6 0.66 6 1.32 6 2 C4.68 2 3.36 2 2 2 C2 2.66 2 3.32 2 4 C0.02 4 -1.96 4 -4 4 C-4 3.34 -4 2.68 -4 2 C-2.68 2 -1.36 2 0 2 C0 1.34 0 0.68 0 0 Z " fill="#FEA41B" transform="translate(288,244)"/>
<path d="M0 0 C1.32 0 2.64 0 4 0 C4 0.66 4 1.32 4 2 C3.34 2 2.68 2 2 2 C2 2.66 2 3.32 2 4 C-0.64 4 -3.28 4 -6 4 C-6 3.34 -6 2.68 -6 2 C-4.02 2 -2.04 2 0 2 C0 1.34 0 0.68 0 0 Z " fill="#EEAD49" transform="translate(328,242)"/>
<path d="M0 0 C0.91058531 3.07322544 1.08886184 5.80097361 1 9 C0.01 9 -0.98 9 -2 9 C-2.33 9.66 -2.66 10.32 -3 11 C-2.44894091 7.0507432 -1.61064629 3.65079826 0 0 Z " fill="#DDE7EC" transform="translate(213,339)"/>
<path d="M0 0 C0.33 0 0.66 0 1 0 C1.125 5.75 1.125 5.75 0 8 C-0.99 8 -1.98 8 -3 8 C-3.33 7.01 -3.66 6.02 -4 5 C-2.125 2.3125 -2.125 2.3125 0 0 Z " fill="#213249" transform="translate(271,402)"/>
<path d="M0 0 C0.66 0 1.32 0 2 0 C1.125 5.875 1.125 5.875 0 7 C-1.66617115 7.04063832 -3.33388095 7.042721 -5 7 C-4.67 6.01 -4.34 5.02 -4 4 C-2.02 4.495 -2.02 4.495 0 5 C-0.2784375 4.0409375 -0.2784375 4.0409375 -0.5625 3.0625 C-0.706875 2.381875 -0.85125 1.70125 -1 1 C-0.67 0.67 -0.34 0.34 0 0 Z " fill="#131E26" transform="translate(260,427)"/>
<path d="M0 0 C-0.33 1.32 -0.66 2.64 -1 4 C-1.33 3.67 -1.66 3.34 -2 3 C-4.34987262 2.76472227 -6.70556039 2.58613583 -9.0625 2.4375 C-10.35285156 2.35371094 -11.64320313 2.26992188 -12.97265625 2.18359375 C-14.47119141 2.09271484 -14.47119141 2.09271484 -16 2 C-16 1.67 -16 1.34 -16 1 C-13.70839646 0.83246763 -11.41671509 0.66599948 -9.125 0.5 C-7.84882813 0.4071875 -6.57265625 0.314375 -5.2578125 0.21875 C-3.50763316 0.10123196 -1.75412035 0 0 0 Z " fill="#14324C" transform="translate(244,430)"/>
<path d="M0 0 C1.65 0 3.3 0 5 0 C5 1.32 5 2.64 5 4 C3.68 4.33 2.36 4.66 1 5 C0.67 3.35 0.34 1.7 0 0 Z " fill="#162230" transform="translate(144,391)"/>
<path d="M0 0 C0.66 0.99 1.32 1.98 2 3 C-0.47775095 4.23887548 -2.23653707 4.16741669 -5 4.1875 C-6.3303125 4.20876953 -6.3303125 4.20876953 -7.6875 4.23046875 C-10 4 -10 4 -12 2 C-8.04 2 -4.08 2 0 2 C0 1.34 0 0.68 0 0 Z " fill="#F0EDE8" transform="translate(444,336)"/>
<path d="M0 0 C1.66611905 -0.042721 3.33382885 -0.04063832 5 0 C6 1 6 1 6.0625 3.5625 C6.041875 4.366875 6.02125 5.17125 6 6 C3.96166576 4.7260411 1.96147874 3.38938077 0 2 C0 1.34 0 0.68 0 0 Z " fill="#F09F3C" transform="translate(274,326)"/>
<path d="M0 0 C0.66 0 1.32 0 2 0 C2 1.32 2 2.64 2 4 C1.34 4 0.68 4 0 4 C-0.33 4.99 -0.66 5.98 -1 7 C-1.99 6.67 -2.98 6.34 -4 6 C-4 5.34 -4 4.68 -4 4 C-3.34 4 -2.68 4 -2 4 C-2 3.34 -2 2.68 -2 2 C-1.34 2 -0.68 2 0 2 C0 1.34 0 0.68 0 0 Z " fill="#D69E50" transform="translate(256,262)"/>
<path d="M0 0 C0.66 0 1.32 0 2 0 C2 0.66 2 1.32 2 2 C2.66 2 3.32 2 4 2 C4 2.66 4 3.32 4 4 C4.66 4 5.32 4 6 4 C6 4.66 6 5.32 6 6 C4.35 5.67 2.7 5.34 1 5 C0.67 3.35 0.34 1.7 0 0 Z " fill="#F5DCBB" transform="translate(350,258)"/>
<path d="M0 0 C-1 2 -1 2 -2.84765625 2.6328125 C-3.57855469 2.79523438 -4.30945313 2.95765625 -5.0625 3.125 C-6.16271484 3.37636719 -6.16271484 3.37636719 -7.28515625 3.6328125 C-7.85105469 3.75398437 -8.41695313 3.87515625 -9 4 C-9 3.01 -9 2.02 -9 1 C-6.04335481 -0.4783226 -3.25770263 -0.06032783 0 0 Z " fill="#FABC71" transform="translate(303,248)"/>
<path d="M0 0 C1.32 0 2.64 0 4 0 C4.33 0.99 4.66 1.98 5 3 C4.360625 3.12375 3.72125 3.2475 3.0625 3.375 C2.381875 3.58125 1.70125 3.7875 1 4 C0.67 4.66 0.34 5.32 0 6 C-1 3 -1 3 0 0 Z " fill="#2A3D4C" transform="translate(191,403)"/>
<path d="M0 0 C0.99 0.33 1.98 0.66 3 1 C2.625 3.4375 2.625 3.4375 2 6 C1.01 6.495 1.01 6.495 0 7 C-1.125 2.25 -1.125 2.25 0 0 Z " fill="#D8E0E4" transform="translate(275,399)"/>
<path d="M0 0 C2.64 0 5.28 0 8 0 C8 0.66 8 1.32 8 2 C6.68 2 5.36 2 4 2 C4 2.66 4 3.32 4 4 C3.34 4 2.68 4 2 4 C2 3.34 2 2.68 2 2 C1.34 2 0.68 2 0 2 C0 1.34 0 0.68 0 0 Z " fill="#46ACD6" transform="translate(274,246)"/>
<path d="M0 0 C1.32 0 2.64 0 4 0 C4 0.66 4 1.32 4 2 C5.32 2 6.64 2 8 2 C8 2.66 8 3.32 8 4 C6.02 4 4.04 4 2 4 C2 3.34 2 2.68 2 2 C1.34 2 0.68 2 0 2 C0 1.34 0 0.68 0 0 Z " fill="#E9A747" transform="translate(294,242)"/>
<path d="M0 0 C1.32 0.66 2.64 1.32 4 2 C3.67 3.98 3.34 5.96 3 8 C2.34 6.68 1.68 5.36 1 4 C0.34 4 -0.32 4 -1 4 C-0.67 2.68 -0.34 1.36 0 0 Z " fill="#20384E" transform="translate(476,396)"/>
<path d="M0 0 C0.66 0.66 1.32 1.32 2 2 C1.7578125 4.1640625 1.7578125 4.1640625 1.125 6.625 C0.92132813 7.44226563 0.71765625 8.25953125 0.5078125 9.1015625 C0.34023437 9.72804688 0.17265625 10.35453125 0 11 C-0.33 11 -0.66 11 -1 11 C-1.14285714 3.57142857 -1.14285714 3.57142857 0 0 Z " fill="#0F1726" transform="translate(162,421)"/>
<path d="M0 0 C0.99 0.99 1.98 1.98 3 3 C2.01 4.32 1.02 5.64 0 7 C-0.66 6.67 -1.32 6.34 -2 6 C-1.34 4.02 -0.68 2.04 0 0 Z " fill="#1B2E3B" transform="translate(262,421)"/>
<path d="M0 0 C0.66 0 1.32 0 2 0 C2 0.66 2 1.32 2 2 C2.66 2 3.32 2 4 2 C4 2.66 4 3.32 4 4 C1.125 4.125 1.125 4.125 -2 4 C-2.66 3.34 -3.32 2.68 -4 2 C-2.68 2 -1.36 2 0 2 C0 1.34 0 0.68 0 0 Z " fill="#F39D3C" transform="translate(260,316)"/>
<path d="M0 0 C1.32 0 2.64 0 4 0 C4 0.66 4 1.32 4 2 C0.91190305 3.76462683 -0.23312136 4 -4 4 C-4 3.34 -4 2.68 -4 2 C-2.68 2 -1.36 2 0 2 C0 1.34 0 0.68 0 0 Z " fill="#F9A92B" transform="translate(356,298)"/>
<path d="M0 0 C0.66 0 1.32 0 2 0 C2.33 2.31 2.66 4.62 3 7 C2.01 7.66 1.02 8.32 0 9 C0 6.03 0 3.06 0 0 Z " fill="#0E9ADB" transform="translate(184,294)"/>
<path d="M0 0 C0 0.66 0 1.32 0 2 C-1.32 2 -2.64 2 -4 2 C-4 2.66 -4 3.32 -4 4 C-5.32 4 -6.64 4 -8 4 C-8 3.34 -8 2.68 -8 2 C-4.91190305 0.23537317 -3.76687864 0 0 0 Z " fill="#24B0E6" transform="translate(258,204)"/>
<path d="M0 0 C0.33 0.66 0.66 1.32 1 2 C-0.28965176 3.37562854 -1.62689293 4.70766393 -3 6 C-3.66 6 -4.32 6 -5 6 C-3.63016497 2.83884224 -3.0109362 2.0072908 0 0 Z " fill="#17263A" transform="translate(478,409)"/>
</svg>
